# xmcd
#
# Track frame offsets: 
#        150
#        13374
#        25406
#        37715
#        50010
#        62793
#        75574
#        88478
#        99048
#        112010
#        124403
#        136781
#        149575
#        161299
#        174624
#        186804
#        199360
#        211864
#        225007
#        237610
#        250012
#        262912
#        275267
#        287917
#        299993
#
# Disc length: 4160 seconds
#
# Revision: 1
# Processed by: cddbd v1.5.2PL0 Copyright (c) Steve Scherf et al.
# Submitted via: ExactAudioCopy v1.0b3
#
DISCID=73103e19
DTITLE=Roy Acuff - King Of The Hillbillies_CD3
DYEAR=2007
DGENRE=Country
TTITLE0=A Vagabond's Dream
TTITLE1=Old Age Pension Check
TTITLE2=Eyes Are Watching You
TTITLE3=I'm Building A Home
TTITLE4=Walkin' In My Sleep
TTITLE5=Drifting Too Far From The Shore
TTITLE6=Come Back Little Pal
TTITLE7=Will The Circle Be Unbroken
TTITLE8=When I Lay My Burden Down
TTITLE9=Beneath That Lonely Mound Of Clay
TTITLE10=The Streamlined Cannon Ball
TTITLE11=Weary River
TTITLE12=Just To Ease My Worried Mind
TTITLE13=Farther Along
TTITLE14=Blue Eyed Darling
TTITLE15=The Precious Jewel
TTITLE16=The Broken Heart
TTITLE17=Would You Care
TTITLE18=Lonesome Old River Blues
TTITLE19=What Good Will It Do
TTITLE20=Mule Skinner Blues (Blue Yodel #8)
TTITLE21=Be Honest With Me
TTITLE22=Worried Mind
TTITLE23=Things That Might Have Been
TTITLE24=You're My Darling
EXTD=
EXTT0=
EXTT1=
EXTT2=
EXTT3=
EXTT4=
EXTT5=
EXTT6=
EXTT7=
EXTT8=
EXTT9=
EXTT10=
EXTT11=
EXTT12=
EXTT13=
EXTT14=
EXTT15=
EXTT16=
EXTT17=
EXTT18=
EXTT19=
EXTT20=
EXTT21=
EXTT22=
EXTT23=
EXTT24=
PLAYORDER=
